<svg width="250" height="250" viewBox="0 0 250 250" fill="none" xmlns="http://www.w3.org/2000/svg">
<path d="M127.462 72.7612C135.583 72.7612 145.763 67.2708 151.825 59.9503C157.315 53.3161 161.319 44.0511 161.319 34.7861C161.319 33.5279 161.204 32.2697 160.976 31.2402C151.939 31.5834 141.073 37.3025 134.553 44.9662C129.406 50.7997 124.716 59.9503 124.716 69.3297C124.716 70.7023 124.945 72.0749 125.06 72.5324C125.631 72.6468 126.546 72.7612 127.462 72.7612ZM98.8658 211.164C109.961 211.164 114.879 203.73 128.72 203.73C142.789 203.73 145.877 210.936 158.231 210.936C170.355 210.936 178.476 199.726 186.14 188.745C194.719 176.163 198.265 163.81 198.493 163.238C197.693 163.009 174.473 153.516 174.473 126.864C174.473 103.759 192.774 93.3501 193.804 92.5495C181.679 75.1633 163.263 74.7057 158.231 74.7057C144.619 74.7057 133.524 82.9413 126.546 82.9413C118.997 82.9413 109.046 75.1633 97.2645 75.1633C74.8454 75.1633 52.0833 93.6933 52.0833 128.694C52.0833 150.427 60.5476 173.418 70.9564 188.288C79.8783 200.87 87.6563 211.164 98.8658 211.164Z" fill="#151417"/>
</svg>
