<svg width="250" height="250" viewBox="0 0 250 250" fill="none" xmlns="http://www.w3.org/2000/svg">
<path fill-rule="evenodd" clip-rule="evenodd" d="M215 127.118C215 120.47 214.404 114.078 213.296 107.941H125V144.206H175.455C173.282 155.924 166.677 165.853 156.748 172.501V196.024H187.046C204.773 179.703 215 155.669 215 127.118Z" fill="#4285F4"/>
<path fill-rule="evenodd" clip-rule="evenodd" d="M125.003 218.736C150.315 218.736 171.537 210.341 187.048 196.023L156.75 172.501C148.355 178.126 137.616 181.449 125.003 181.449C100.585 181.449 79.9173 164.958 72.5451 142.799H41.2241V167.089C56.6503 197.728 88.3548 218.736 125.003 218.736Z" fill="#34A853"/>
<path fill-rule="evenodd" clip-rule="evenodd" d="M72.5421 142.807C70.6671 137.182 69.6018 131.174 69.6018 124.995C69.6018 118.816 70.6671 112.807 72.5421 107.182V82.8926H41.2211C34.8717 95.5488 31.2495 109.867 31.2495 124.995C31.2495 140.123 34.8717 154.441 41.2211 167.097L72.5421 142.807Z" fill="#FBBC05"/>
<path fill-rule="evenodd" clip-rule="evenodd" d="M125.003 68.5272C138.767 68.5272 151.125 73.2573 160.841 82.5471L187.73 55.6578C171.494 40.53 150.272 31.2402 125.003 31.2402C88.3548 31.2402 56.6503 52.2488 41.2241 82.888L72.5451 107.178C79.9173 85.0186 100.585 68.5272 125.003 68.5272Z" fill="#EA4335"/>
</svg>
